<?xml version="1.0" standalone="no"?>
<!DOCTYPE svg PUBLIC "-//W3C//DTD SVG 20010904//EN"
 "http://www.w3.org/TR/2001/REC-SVG-20010904/DTD/svg10.dtd">
<svg version="1.0" xmlns="http://www.w3.org/2000/svg"
 width="512.000000pt" height="512.000000pt" viewBox="0 0 512.000000 512.000000"
 preserveAspectRatio="xMidYMid meet">

<g transform="translate(0.000000,512.000000) scale(0.100000,-0.100000)"
fill="#000000" stroke="none">
<path d="M3437 5090 c-105 -27 -215 -117 -264 -219 -23 -46 -27 -70 -28 -136
0 -98 12 -124 100 -222 l65 -71 -177 -169 c-98 -93 -475 -448 -839 -790 l-661
-621 -178 -624 -178 -624 -370 -348 -369 -348 -74 80 c-85 93 -136 122 -212
122 -63 0 -111 -19 -168 -65 -73 -60 -101 -146 -70 -219 7 -18 145 -172 306
-343 315 -336 336 -353 433 -353 114 0 217 105 217 220 -1 73 -26 127 -98 203
-32 34 -63 69 -70 78 -10 14 32 58 301 310 171 161 337 317 368 346 l55 52
605 141 c332 77 616 145 631 150 21 7 1332 1228 1630 1519 l68 65 67 -71 c90
-94 117 -108 218 -108 69 0 89 4 145 31 83 39 154 110 194 194 40 84 43 180 8
250 -32 64 -1402 1516 -1460 1548 -48 27 -135 37 -195 22z m360 -1277 c159
-170 304 -324 321 -344 l32 -37 -83 -79 c-45 -44 -105 -101 -133 -127 l-52
-47 -321 341 c-177 188 -321 345 -319 351 3 8 257 249 263 249 1 0 132 -138
292 -307z m-432 -350 c143 -152 288 -307 322 -343 l63 -67 -567 -534 c-311
-294 -571 -537 -577 -541 -26 -15 -585 -140 -631 -140 -60 -1 -101 18 -143 66
-28 32 -52 89 -52 126 0 8 39 154 87 324 l88 310 570 537 c313 296 572 538
575 539 3 0 122 -125 265 -277z"/>
<path d="M2805 3215 l-130 -124 204 -205 c202 -202 205 -205 226 -187 12 9 73
65 136 124 l113 107 -204 205 c-113 113 -207 205 -210 205 -3 -1 -63 -57 -135
-125z"/>
<path d="M2057 2354 c-9 -17 -67 -230 -67 -250 0 -27 40 -64 71 -64 32 0 259
52 259 60 0 12 -258 262 -263 254z"/>
<path d="M1635 5061 c-16 -4 -43 -15 -60 -24 -16 -9 -360 -344 -762 -744 -557
-554 -736 -738 -748 -768 -24 -59 -16 -185 14 -248 37 -76 113 -152 189 -189
59 -29 76 -33 147 -33 97 0 124 13 216 102 l67 64 329 -332 329 -332 58 203
58 202 -33 34 -33 34 334 335 335 335 45 -45 45 -44 130 124 130 123 -267 269
c-148 147 -268 273 -268 278 0 6 30 40 66 75 90 89 108 126 108 220 0 92 -33
169 -106 246 -85 90 -227 140 -323 115z m180 -1101 l130 -130 -335 -335 -335
-335 -132 132 -133 133 332 332 c183 183 335 333 338 333 3 0 64 -59 135 -130z"/>
<path d="M3492 2062 c-126 -121 -143 -140 -141 -167 4 -53 -12 -93 -47 -125
-34 -29 -56 -35 -120 -31 -28 2 -49 -14 -180 -139 -82 -77 -150 -144 -152
-148 -1 -4 160 -50 358 -102 l360 -95 357 -357 357 -357 -77 -79 c-87 -90
-117 -145 -117 -217 0 -122 106 -225 229 -225 81 0 121 33 427 341 307 310
314 320 314 410 0 81 -81 187 -160 209 -100 28 -166 3 -280 -106 l-81 -78
-358 360 -357 359 -84 343 c-47 188 -89 342 -95 342 -5 -1 -74 -63 -153 -138z"/>
</g>
</svg>
